<svg width="47" height="22" viewBox="0 0 47 22" fill="none" xmlns="http://www.w3.org/2000/svg">
<path d="M45 12.4384C45.7944 12.4384 46.4384 11.7944 46.4384 11C46.4384 10.2056 45.7944 9.56164 45 9.56164V12.4384ZM0.982925 9.98292C0.421207 10.5446 0.421207 11.4554 0.982925 12.0171L10.1366 21.1708C10.6983 21.7325 11.609 21.7325 12.1708 21.1708C12.7325 20.609 12.7325 19.6983 12.1708 19.1366L4.03415 11L12.1708 2.86339C12.7325 2.30167 12.7325 1.39095 12.1708 0.829235C11.609 0.26752 10.6983 0.26752 10.1366 0.829235L0.982925 9.98292ZM45 9.56164L2 9.56164V12.4384L45 12.4384V9.56164Z" fill="#272727"/>
</svg>
