<svg width="10" height="13" viewBox="0 0 10 13" fill="none" xmlns="http://www.w3.org/2000/svg">
<path d="M5.6 1C5.6 0.668629 5.33137 0.4 5 0.4C4.66863 0.4 4.4 0.668629 4.4 1H5.6ZM4.57574 12.4243C4.81005 12.6586 5.18995 12.6586 5.42426 12.4243L9.24264 8.60589C9.47696 8.37157 9.47696 7.99167 9.24264 7.75736C9.00833 7.52304 8.62843 7.52304 8.39411 7.75736L5 11.1515L1.60589 7.75736C1.37157 7.52304 0.991674 7.52304 0.757359 7.75736C0.523045 7.99167 0.523045 8.37157 0.757359 8.60589L4.57574 12.4243ZM4.4 1L4.4 12H5.6L5.6 1H4.4Z" fill="#7E7E7E"/>
</svg>
