<svg width="39" height="39" viewBox="0 0 39 39" fill="none" xmlns="http://www.w3.org/2000/svg">
<path d="M21.1516 24.368C21.1516 24.4853 21.1089 24.5867 21.0236 24.672C20.9383 24.7573 20.8369 24.8 20.7196 24.8H20.0636C19.9463 24.8 19.8449 24.7573 19.7596 24.672C19.6743 24.5867 19.6316 24.4853 19.6316 24.368V15.552L17.0396 17.52C16.9649 17.584 16.8743 17.616 16.7676 17.616C16.6289 17.616 16.5169 17.5627 16.4316 17.456L16.0476 16.96C15.9836 16.8747 15.9516 16.784 15.9516 16.688C15.9516 16.5493 16.0103 16.4373 16.1276 16.352L19.5516 13.728C19.6689 13.6427 19.8396 13.6 20.0636 13.6H20.7196C20.8369 13.6 20.9383 13.6427 21.0236 13.728C21.1089 13.8133 21.1516 13.9147 21.1516 14.032V24.368Z" fill="#2C64EE"/>
<circle cx="19.5" cy="19.5" r="18.9" stroke="#2C64EE" stroke-width="1.2"/>
</svg>
