<svg width="40" height="39" viewBox="0 0 40 39" fill="none" xmlns="http://www.w3.org/2000/svg">
<path d="M20.8676 24.96C20.1956 24.96 19.6089 24.88 19.1076 24.72C18.6063 24.5493 18.1849 24.3253 17.8436 24.048C17.5023 23.7707 17.2409 23.4667 17.0596 23.136C16.8889 22.8053 16.7983 22.464 16.7876 22.112C16.7876 22.016 16.8196 21.9413 16.8836 21.888C16.9476 21.8347 17.0276 21.808 17.1236 21.808H17.9076C18.0036 21.808 18.0889 21.8293 18.1636 21.872C18.2383 21.9147 18.3023 22.0053 18.3556 22.144C18.4623 22.528 18.6436 22.8267 18.8996 23.04C19.1663 23.2533 19.4703 23.4027 19.8116 23.488C20.1636 23.5627 20.5156 23.6 20.8676 23.6C21.6036 23.6 22.2009 23.424 22.6596 23.072C23.1183 22.72 23.3476 22.2027 23.3476 21.52C23.3476 20.8267 23.1396 20.3307 22.7236 20.032C22.3076 19.7333 21.7316 19.584 20.9956 19.584H19.4756C19.3689 19.584 19.2783 19.552 19.2036 19.488C19.1396 19.424 19.1076 19.3333 19.1076 19.216V18.784C19.1076 18.688 19.1236 18.608 19.1556 18.544C19.1983 18.4693 19.2409 18.4053 19.2836 18.352L22.3876 14.96H17.6676C17.5609 14.96 17.4703 14.928 17.3956 14.864C17.3316 14.8 17.2996 14.7093 17.2996 14.592V13.984C17.2996 13.8667 17.3316 13.776 17.3956 13.712C17.4703 13.6373 17.5609 13.6 17.6676 13.6H24.0516C24.1689 13.6 24.2596 13.6373 24.3236 13.712C24.3983 13.776 24.4356 13.8667 24.4356 13.984V14.56C24.4356 14.6347 24.4143 14.704 24.3716 14.768C24.3396 14.8213 24.3023 14.8747 24.2596 14.928L21.1716 18.368L21.4276 18.384C22.1316 18.4053 22.7449 18.5333 23.2676 18.768C23.8009 19.0027 24.2116 19.3547 24.4996 19.824C24.7983 20.2827 24.9476 20.864 24.9476 21.568C24.9476 22.2827 24.7716 22.896 24.4196 23.408C24.0676 23.9093 23.5823 24.2933 22.9636 24.56C22.3449 24.8267 21.6463 24.96 20.8676 24.96Z" fill="#2C64EE"/>
<circle cx="20" cy="19.5" r="18.9" stroke="#2C64EE" stroke-width="1.2"/>
</svg>
