<svg width="40" height="39" viewBox="0 0 40 39" fill="none" xmlns="http://www.w3.org/2000/svg">
<path d="M17.2516 24.8C17.1449 24.8 17.0543 24.768 16.9796 24.704C16.9156 24.6293 16.8836 24.5387 16.8836 24.432V23.92C16.8836 23.824 16.9103 23.7173 16.9636 23.6C17.0169 23.4827 17.1236 23.3547 17.2836 23.216L20.6756 19.824C21.2196 19.3653 21.6463 18.976 21.9556 18.656C22.2756 18.3253 22.4996 18.0107 22.6276 17.712C22.7663 17.4133 22.8356 17.104 22.8356 16.784C22.8356 16.176 22.6649 15.696 22.3236 15.344C21.9823 14.9813 21.4756 14.8 20.8036 14.8C20.3769 14.8 20.0089 14.8907 19.6996 15.072C19.3903 15.2427 19.1449 15.4827 18.9636 15.792C18.7929 16.0907 18.6809 16.432 18.6276 16.816C18.6063 16.9547 18.5476 17.0507 18.4516 17.104C18.3663 17.1573 18.2863 17.184 18.2116 17.184H17.3796C17.2836 17.184 17.2036 17.1573 17.1396 17.104C17.0756 17.04 17.0436 16.9653 17.0436 16.88C17.0543 16.4747 17.1396 16.0693 17.2996 15.664C17.4596 15.248 17.6943 14.8747 18.0036 14.544C18.3236 14.2133 18.7129 13.9467 19.1716 13.744C19.6409 13.5307 20.1849 13.424 20.8036 13.424C21.6463 13.424 22.3343 13.5787 22.8676 13.888C23.4116 14.1867 23.8116 14.5867 24.0676 15.088C24.3236 15.5893 24.4516 16.1387 24.4516 16.736C24.4516 17.2053 24.3716 17.6373 24.2116 18.032C24.0516 18.416 23.8169 18.7947 23.5076 19.168C23.2089 19.5307 22.8356 19.904 22.3876 20.288L19.3156 23.408H24.3076C24.4249 23.408 24.5156 23.44 24.5796 23.504C24.6543 23.568 24.6916 23.6587 24.6916 23.776V24.432C24.6916 24.5387 24.6543 24.6293 24.5796 24.704C24.5156 24.768 24.4249 24.8 24.3076 24.8H17.2516Z" fill="#2C64EE"/>
<circle cx="20" cy="19.5" r="18.9" stroke="#2C64EE" stroke-width="1.2"/>
</svg>
