<svg width="28" height="35" viewBox="0 0 28 35" fill="none" xmlns="http://www.w3.org/2000/svg">
<path d="M7.4123 32.2436C8.18858 31.4137 9.55442 30.0879 10.3077 29.2827C9.43848 29.8124 7.79186 31.2977 6.95082 31.8313C5.78267 30.9685 4.68468 30.0146 3.66715 28.9784C5.62657 28.5448 7.4712 27.6989 9.07835 26.4971C7.18714 27.4281 5.14564 28.0159 3.0489 28.2332C2.2937 27.1941 1.60918 26.1054 1 24.9745C5.2764 26.1372 9.92644 24.4244 12.797 21.4348C13.5393 21.8638 14.4921 22.3855 15.27 22.7786C15.4995 22.8943 15.7034 23.055 15.8695 23.2511C16.0357 23.4473 16.1606 23.6748 16.237 23.9203C17.2812 26.71 16.6723 29.1691 14.783 31.3793C13.9925 32.3041 12.8136 33.7186 11.7723 34.3455C10.2404 33.8212 8.77663 33.1156 7.4123 32.2436Z" stroke="#ABABAB" stroke-width="0.7" stroke-linecap="round" stroke-linejoin="round"/>
<path d="M16.8215 19.7687L15.2719 18.8719C15.6808 18.1582 16.0769 17.4627 16.477 16.7696C19.369 11.7601 22.2614 6.75088 25.1544 1.74197C25.2135 1.63954 25.2708 1.53575 25.3357 1.43703C25.4566 1.23409 25.6529 1.08717 25.8816 1.02827C26.1104 0.969377 26.3532 1.00329 26.557 1.12261C26.7609 1.24194 26.9094 1.43701 26.9701 1.66531C27.0307 1.89361 26.9987 2.13664 26.881 2.34145C26.3967 3.20909 25.8925 4.06538 25.3958 4.92591C22.8588 9.3208 20.3217 13.7156 17.7842 18.1103C17.4718 18.6518 17.1567 19.1917 16.8215 19.7687Z" stroke="#ABABAB" stroke-width="0.7" stroke-miterlimit="10"/>
<path d="M16.08 22.8168L13.0187 21.0485C13.3384 20.4994 13.6295 19.9603 13.9608 19.4467C13.9985 19.3815 14.049 19.3245 14.1093 19.2794C14.1696 19.2342 14.2385 19.2018 14.3117 19.184C14.3849 19.1662 14.461 19.1635 14.5353 19.1759C14.6096 19.1884 14.6806 19.2158 14.744 19.2565C15.4268 19.6329 16.1019 20.023 16.7695 20.4265C16.8362 20.4616 16.8952 20.5098 16.9429 20.5682C16.9905 20.6266 17.026 20.6941 17.047 20.7665C17.068 20.8389 17.0743 20.9148 17.0653 20.9896C17.0564 21.0645 17.0324 21.1368 16.9949 21.2022C16.7159 21.7457 16.3945 22.2678 16.08 22.8168Z" stroke="#ABABAB" stroke-width="0.7" stroke-miterlimit="10"/>
</svg>
