<svg width="19" height="12" viewBox="0 0 19 12" fill="none" xmlns="http://www.w3.org/2000/svg">
<path d="M9.5 0C5.18182 0 1.49409 2.488 0 6C1.49409 9.512 5.18182 12 9.5 12C13.8182 12 17.5059 9.512 19 6C17.5059 2.488 13.8182 0 9.5 0ZM9.5 10C7.11636 10 5.18182 8.208 5.18182 6C5.18182 3.792 7.11636 2 9.5 2C11.8836 2 13.8182 3.792 13.8182 6C13.8182 8.208 11.8836 10 9.5 10ZM9.5 3.6C8.06636 3.6 6.90909 4.672 6.90909 6C6.90909 7.328 8.06636 8.4 9.5 8.4C10.9336 8.4 12.0909 7.328 12.0909 6C12.0909 4.672 10.9336 3.6 9.5 3.6Z" fill="#B9B9B9"/>
</svg>
