<svg width="9" height="7" viewBox="0 0 9 7" fill="none" xmlns="http://www.w3.org/2000/svg">
<path fill-rule="evenodd" clip-rule="evenodd" d="M7.96296 0C7.7711 0 7.59981 0.0753703 7.47647 0.198704L3.16666 4.51537L1.59759 2.93944C1.47425 2.81611 1.30296 2.74074 1.1111 2.74074C0.734252 2.74074 0.425919 3.04907 0.425919 3.42593C0.425919 3.61778 0.501289 3.78907 0.624622 3.91241L2.68018 5.96796C2.80351 6.0913 2.97481 6.16667 3.16666 6.16667C3.35851 6.16667 3.52981 6.0913 3.65314 5.96796L8.44944 1.17167C8.57277 1.04833 8.64814 0.877037 8.64814 0.685185C8.64814 0.308333 8.33981 0 7.96296 0Z" fill="#272727"/>
</svg>
