<svg width="42" height="37" viewBox="0 0 42 37" fill="none" xmlns="http://www.w3.org/2000/svg">
<path d="M9 12.6667H15H9ZM3 1L39 36L3 1ZM41 12.6667V28.2222C41 29.2536 40.5786 30.2428 39.8284 30.9721C39.0783 31.7014 38.0609 32.1111 37 32.1111H5C3.93913 32.1111 2.92172 31.7014 2.17157 30.9721C1.42143 30.2428 1 29.2536 1 28.2222V8.77778C1 7.74638 1.42143 6.75723 2.17157 6.02792C2.92172 5.29861 3.93913 4.88889 5 4.88889H7M41 12.6667V8.77778C41 7.74638 40.5786 6.75723 39.8284 6.02792C39.0783 5.29861 38.0609 4.88889 37 4.88889H17M41 12.6667H25H41ZM9 12.6667H15H9Z" fill="white"/>
<path d="M9 12.6667H15M3 1L39 36M41 12.6667V28.2222C41 29.2536 40.5786 30.2428 39.8284 30.9721C39.0783 31.7014 38.0609 32.1111 37 32.1111H5C3.93913 32.1111 2.92172 31.7014 2.17157 30.9721C1.42143 30.2428 1 29.2536 1 28.2222V8.77778C1 7.74638 1.42143 6.75723 2.17157 6.02792C2.92172 5.29861 3.93913 4.88889 5 4.88889H7M41 12.6667V8.77778C41 7.74638 40.5786 6.75723 39.8284 6.02792C39.0783 5.29861 38.0609 4.88889 37 4.88889H17M41 12.6667H25" stroke="#2C64EE" stroke-width="1.625" stroke-linecap="round" stroke-linejoin="round"/>
</svg>
