<svg width="77" height="23" viewBox="0 0 77 23" fill="none" xmlns="http://www.w3.org/2000/svg">
<path d="M35.4241 7.84077C8.02315 7.11438 0.365801 9.25324 0.0126953 15.6848C7.23623 8.31995 24.5283 9.47287 35.4241 9.40456C48.2974 9.32385 55.5175 6.916 57.5185 5.72217C54.2094 7.57849 41.4101 7.90804 35.4241 7.84077Z" fill="#272727"/>
<path d="M27.908 6.93314H23.8725L23.8892 6.91813C35.54 -3.55535 51.2158 0.527507 57.2158 2.19137C63.3497 4.53195 71.2055 5.25162 74.3666 5.31887C71.6225 7.90159 63.8071 5.92424 60.2424 4.61273C38.6525 -1.74323 32.4984 2.64539 27.908 6.93314Z" fill="#272727"/>
<path d="M0 15.6974C6.60812 9.19018 18.3237 9.35412 40.0144 9.10186C25.7893 8.84971 1.37207 7.06146 0 15.6974Z" fill="#272727"/>
<path d="M27.8071 6.98319C29.5222 4.46101 35.2626 -0.290781 44.5039 0.879512C41.326 0.627295 33.5375 1.49493 27.8071 6.98319Z" fill="#272727"/>
<path d="M74.2656 5.31854C70.1124 5.09995 60.1212 4.12807 53.382 1.98926C58.4263 3.75479 69.6652 6.89238 74.2656 5.31854Z" fill="#272727"/>
<path d="M58.7793 5.2179H31.5902C37.0785 -0.875682 52.5075 2.44351 59.536 4.8648C58.971 4.82444 58.7962 5.08339 58.7793 5.2179Z" fill="#272727"/>
<path d="M2.30995 20.1714L6.45016 13.7167H8.24825L9.80659 20.1714H7.99006L6.83744 14.5835H7.55668L4.23713 20.1714H2.30995ZM4.11726 18.9173L4.85494 17.5711H8.0085L8.21136 18.9173H4.11726ZM11.1549 20.1714L12.4458 13.7167H15.71C16.4415 13.7167 16.9979 13.8489 17.379 14.1132C17.7601 14.3714 17.9507 14.7433 17.9507 15.229C17.9507 15.6285 17.8401 15.9666 17.6188 16.2433C17.3975 16.5199 17.0993 16.732 16.7243 16.8795C16.3493 17.0209 15.9282 17.0916 15.4611 17.0916L15.7192 16.649C16.3155 16.649 16.7889 16.7781 17.1393 17.0363C17.4897 17.2944 17.6649 17.6571 17.6649 18.1243C17.6649 18.5915 17.5327 18.9757 17.2684 19.277C17.0102 19.5782 16.6567 19.8025 16.2079 19.9501C15.7653 20.0976 15.2643 20.1714 14.7049 20.1714H11.1549ZM13.2204 18.8528H14.8064C15.126 18.8528 15.3781 18.7882 15.5625 18.6592C15.753 18.5301 15.8483 18.3395 15.8483 18.0875C15.8483 17.8969 15.7776 17.7586 15.6363 17.6725C15.4949 17.5864 15.3135 17.5434 15.0922 17.5434H13.331L13.58 16.2801H15.0461C15.2613 16.2801 15.4426 16.2525 15.5901 16.1972C15.7438 16.1418 15.8576 16.0588 15.9313 15.9482C16.0051 15.8375 16.042 15.7023 16.042 15.5425C16.042 15.3642 15.9744 15.2351 15.8391 15.1552C15.7039 15.0753 15.5164 15.0353 15.2766 15.0353H13.9857L13.2204 18.8528ZM20.2632 20.1714L21.3236 14.7587L21.6464 15.1644H19.295L19.5809 13.7167H25.3347L25.0489 15.1644H22.6422L23.1217 14.7587L22.0613 20.1714H20.2632ZM28.8803 20.3005C28.2164 20.3005 27.6447 20.1806 27.1652 19.9409C26.6857 19.695 26.3169 19.3599 26.0587 18.9358C25.8005 18.5116 25.6714 18.0198 25.6714 17.4604C25.6714 16.8949 25.7697 16.3785 25.9665 15.9113C26.1632 15.438 26.4398 15.0292 26.7963 14.6849C27.1529 14.3345 27.5771 14.064 28.0688 13.8735C28.5668 13.6829 29.1108 13.5876 29.7009 13.5876C30.3649 13.5876 30.9366 13.7106 31.416 13.9565C31.8955 14.1962 32.2644 14.5282 32.5226 14.9523C32.7807 15.3765 32.9098 15.8683 32.9098 16.4277C32.9098 16.9932 32.8115 17.5127 32.6148 17.986C32.4181 18.4532 32.1414 18.862 31.7849 19.2124C31.4283 19.5567 31.0011 19.8241 30.5032 20.0146C30.0114 20.2052 29.4704 20.3005 28.8803 20.3005ZM29.037 18.7882C29.3567 18.7882 29.6395 18.7298 29.8854 18.613C30.1374 18.4962 30.3495 18.3333 30.5216 18.1243C30.6999 17.9092 30.8351 17.6664 30.9273 17.3959C31.0195 17.1254 31.0656 16.8395 31.0656 16.5383C31.0656 16.2494 31.0042 15.9974 30.8812 15.7822C30.7644 15.5671 30.5923 15.4011 30.3649 15.2843C30.1436 15.1613 29.87 15.0999 29.5442 15.0999C29.2307 15.0999 28.9479 15.1583 28.6959 15.2751C28.4438 15.3919 28.2287 15.5578 28.0504 15.773C27.8783 15.982 27.7461 16.2217 27.6539 16.4922C27.5617 16.7627 27.5156 17.0486 27.5156 17.3498C27.5156 17.6326 27.574 17.8846 27.6908 18.1059C27.8137 18.321 27.9858 18.4901 28.2071 18.613C28.4346 18.7298 28.7112 18.7882 29.037 18.7882ZM37.3518 20.3005C36.6941 20.3005 36.1193 20.1806 35.6275 19.9409C35.1419 19.7011 34.7669 19.3692 34.5025 18.945C34.2382 18.5147 34.106 18.0198 34.106 17.4604C34.106 16.901 34.2044 16.3846 34.4011 15.9113C34.5978 15.438 34.8745 15.0292 35.231 14.6849C35.5875 14.3345 36.0117 14.064 36.5035 13.8735C37.0014 13.6829 37.5516 13.5876 38.154 13.5876C38.7503 13.5876 39.279 13.6921 39.74 13.9011C40.2011 14.1101 40.5453 14.4114 40.7728 14.8048L39.4542 15.856C39.3067 15.6101 39.113 15.4226 38.8733 15.2935C38.6397 15.1644 38.36 15.0999 38.0342 15.0999C37.7207 15.0999 37.4348 15.1552 37.1766 15.2658C36.9246 15.3765 36.7063 15.5332 36.5219 15.7361C36.3375 15.939 36.1961 16.1787 36.0978 16.4553C35.9994 16.7258 35.9502 17.0209 35.9502 17.3406C35.9502 17.6295 36.0117 17.8846 36.1346 18.1059C36.2637 18.321 36.4451 18.4901 36.6787 18.613C36.9184 18.7298 37.2012 18.7882 37.527 18.7882C37.8159 18.7882 38.0926 18.7298 38.3569 18.613C38.6274 18.4962 38.8763 18.3057 39.1038 18.0413L40.1826 19.1018C39.82 19.5382 39.4019 19.8487 38.9286 20.0331C38.4553 20.2113 37.9297 20.3005 37.3518 20.3005ZM40.6472 20.1714L44.7874 13.7167H46.5854L48.1438 20.1714H46.3273L45.1746 14.5835H45.8939L42.5743 20.1714H40.6472ZM42.4545 18.9173L43.1921 17.5711H46.3457L46.5486 18.9173H42.4545ZM49.8502 20.3005C49.7026 20.3005 49.5612 20.2913 49.426 20.2728C49.2969 20.2544 49.1678 20.2267 49.0387 20.1898L49.4352 18.696C49.509 18.7145 49.5889 18.7237 49.675 18.7237C49.8901 18.7237 50.0745 18.6469 50.2282 18.4932C50.3881 18.3395 50.5387 18.0844 50.6801 17.7278C50.8214 17.3713 50.9598 16.8918 51.095 16.2894L51.7036 13.7167H56.9042L55.6133 20.1714H53.8152L54.894 14.7587L55.2168 15.1644H52.6072L53.0591 14.7402L52.6441 16.5752C52.4843 17.2822 52.3152 17.8723 52.137 18.3456C51.9648 18.819 51.7712 19.2001 51.556 19.489C51.3409 19.778 51.095 19.987 50.8184 20.1161C50.5417 20.239 50.219 20.3005 49.8502 20.3005ZM61.0881 20.3005C60.4242 20.3005 59.8525 20.1806 59.373 19.9409C58.8935 19.695 58.5246 19.3599 58.2665 18.9358C58.0083 18.5116 57.8792 18.0198 57.8792 17.4604C57.8792 16.8949 57.9775 16.3785 58.1742 15.9113C58.371 15.438 58.6476 15.0292 59.0041 14.6849C59.3607 14.3345 59.7848 14.064 60.2766 13.8735C60.7746 13.6829 61.3186 13.5876 61.9087 13.5876C62.5726 13.5876 63.1443 13.7106 63.6238 13.9565C64.1033 14.1962 64.4722 14.5282 64.7303 14.9523C64.9885 15.3765 65.1176 15.8683 65.1176 16.4277C65.1176 16.9932 65.0193 17.5127 64.8226 17.986C64.6258 18.4532 64.3492 18.862 63.9927 19.2124C63.6361 19.5567 63.2089 19.8241 62.711 20.0146C62.2192 20.2052 61.6782 20.3005 61.0881 20.3005ZM61.2448 18.7882C61.5645 18.7882 61.8473 18.7298 62.0931 18.613C62.3452 18.4962 62.5573 18.3333 62.7294 18.1243C62.9077 17.9092 63.0429 17.6664 63.1351 17.3959C63.2273 17.1254 63.2734 16.8395 63.2734 16.5383C63.2734 16.2494 63.212 15.9974 63.089 15.7822C62.9722 15.5671 62.8001 15.4011 62.5726 15.2843C62.3513 15.1613 62.0778 15.0999 61.752 15.0999C61.4385 15.0999 61.1557 15.1583 60.9036 15.2751C60.6516 15.3919 60.4365 15.5578 60.2582 15.773C60.0861 15.982 59.9539 16.2217 59.8617 16.4922C59.7695 16.7627 59.7234 17.0486 59.7234 17.3498C59.7234 17.6326 59.7818 17.8846 59.8986 18.1059C60.0215 18.321 60.1936 18.4901 60.4149 18.613C60.6424 18.7298 60.919 18.7882 61.2448 18.7882ZM71.6804 13.7167H73.5062L72.2152 20.1714H70.3895L71.6804 13.7167ZM67.9091 20.1714H66.0833L67.3742 13.7167H69.2L67.9091 20.1714ZM71.0257 17.6541H68.2871L68.5914 16.1418H71.33L71.0257 17.6541Z" fill="#272727"/>
<path d="M74.8309 13.7178L77 9.93449C74.2026 10.0133 73.4857 7.59801 73.469 6.29436C72.3794 8.78982 74.3938 10.3326 75.5372 10.792C74.3669 11.1552 74.5787 12.8939 74.8309 13.7178Z" fill="#272727"/>
</svg>
