<svg width="26" height="20" viewBox="0 0 26 20" fill="none" xmlns="http://www.w3.org/2000/svg">
<path d="M5.36359 3.36999L3.14607 7.78067C2.38215 9.30013 2.01211 10.9871 2.06992 12.6868L2.2128 16.8874L23.6947 16.6565L23.9023 12.9706C24.0082 11.0915 23.5897 9.21995 22.6936 7.56491L20.3792 3.29029C19.8427 2.29947 18.9155 1.5641 17.8043 1.37821C14.0808 0.755365 10.3853 1.00714 7.97943 1.38184C6.83096 1.56071 5.88569 2.33153 5.36359 3.36999Z" stroke="#272727" stroke-width="1.2"/>
<path d="M4.06073 6.03125H21.8006" stroke="#272727" stroke-width="1.2"/>
<path d="M8.86536 10.6045H17.1347" stroke="#272727" stroke-width="1.2" stroke-linecap="round"/>
<path d="M10.0665 12.5449L15.9798 12.5449" stroke="#272727" stroke-width="1.2" stroke-linecap="round"/>
<path d="M4.56891 16.7946L5.93538 15.456C6.51049 14.8927 7.28349 14.5771 8.08855 14.5771H17.6886C18.5433 14.5771 19.3594 14.9326 19.9415 15.5584L20.8767 16.5636" stroke="#272727" stroke-width="1.2" stroke-linecap="round"/>
<path d="M2.21283 16.8408V18.6125C2.21283 19.0373 2.55723 19.3817 2.98206 19.3817H4.86222C5.28706 19.3817 5.63145 19.0373 5.63145 18.6125V16.8408" stroke="#272727" stroke-width="1.2" stroke-linecap="round"/>
<path d="M20.3223 16.7949V18.5666C20.3223 18.9914 20.6667 19.3358 21.0916 19.3358H22.9717C23.3966 19.3358 23.7409 18.9914 23.7409 18.5666V16.7949" stroke="#272727" stroke-width="1.2" stroke-linecap="round"/>
<path d="M2.11712 4.87108C2.86927 4.9205 3.69643 5.43047 4.19937 5.8467C3.24381 6.60259 2.52582 6.89663 1.99551 6.9258C0.775794 6.99289 0.898193 4.791 2.11712 4.87108Z" stroke="#272727" stroke-width="1.2" stroke-linecap="round"/>
<path d="M23.8829 4.97264C23.1307 5.02206 22.3036 5.53203 21.8006 5.94826C22.7562 6.70415 23.4742 6.99819 24.0045 7.02736C25.2242 7.09445 25.1018 4.89256 23.8829 4.97264Z" stroke="#272727" stroke-width="1.2" stroke-linecap="round"/>
<path d="M7.84906 11.7595C7.27929 10.0656 5.74245 7.18597 4.15325 9.21867C3.49109 10.0656 3.30322 11.7595 7.84906 11.7595Z" stroke="#272727" stroke-width="1.2" stroke-linecap="round"/>
<path d="M18.1049 11.7195C18.6746 10.0256 20.2115 7.14593 21.8007 9.17863C22.4628 10.0256 22.6507 11.7195 18.1049 11.7195Z" stroke="#272727" stroke-width="1.2" stroke-linecap="round"/>
</svg>
