<svg width="20" height="21" viewBox="0 0 20 21" fill="none" xmlns="http://www.w3.org/2000/svg">
<path d="M13.9509 13.3193L13.4453 13.8729C13.4453 13.8729 12.242 15.1866 8.95867 11.5984C5.67536 8.01028 6.87868 6.69658 6.87868 6.69658L7.19757 6.34711C7.98201 5.48899 8.05645 4.11186 7.3709 3.10611L5.97091 1.04963C5.12203 -0.196019 3.48315 -0.359799 2.51094 0.702465L0.767613 2.6067C0.286505 3.13379 -0.0357153 3.81544 0.00317331 4.57321C0.103173 6.51089 0.900945 10.6781 5.34981 15.5419C10.0687 20.6975 14.4964 20.9028 16.3064 20.7171C16.8797 20.6594 17.3775 20.3376 17.7786 19.8993L19.3564 18.1739C20.423 17.009 20.123 15.0136 18.7586 14.1993L16.6364 12.9306C15.7408 12.3966 14.6509 12.5534 13.9509 13.3181V13.3193Z" fill="white"/>
</svg>
