<svg width="22" height="23" viewBox="0 0 22 23" fill="none" xmlns="http://www.w3.org/2000/svg">
<path d="M15.2599 14.5691L14.7069 15.1746C14.7069 15.1746 13.3907 16.6116 9.79928 12.6868C6.20789 8.7619 7.52413 7.32494 7.52413 7.32494L7.87293 6.94267C8.73098 6.00404 8.81241 4.49768 8.06253 3.39756L6.53117 1.14812C5.60264 -0.214411 3.80998 -0.393559 2.74654 0.768378L0.839639 2.85129C0.313388 3.42784 -0.0390666 4.17345 0.00347107 5.00232C0.112854 7.12182 0.985482 11.68 5.85179 17.0002C11.0134 22.6396 15.8566 22.8641 17.8365 22.661C18.4636 22.5979 19.0081 22.2459 19.4468 21.7665L21.1726 19.8792C22.3394 18.6049 22.0112 16.4224 20.5188 15.5317L18.1974 14.1439C17.2178 13.5598 16.0256 13.7314 15.2599 14.5678V14.5691Z" fill="white"/>
</svg>
