<svg width="20" height="19" viewBox="0 0 20 19" fill="none" xmlns="http://www.w3.org/2000/svg">
<path d="M11.8425 1.25583C11.867 1.16428 11.9093 1.07846 11.967 1.00326C12.0246 0.928066 12.0965 0.864969 12.1786 0.817576C12.2607 0.770182 12.3512 0.739422 12.4452 0.727053C12.5392 0.714684 12.6346 0.720948 12.7261 0.745488C14.0634 1.09438 15.2834 1.79343 16.2606 2.77064C17.2378 3.74785 17.9369 4.96789 18.2858 6.3051C18.3103 6.39663 18.3166 6.4921 18.3042 6.58605C18.2918 6.68 18.2611 6.77059 18.2137 6.85265C18.1663 6.93471 18.1032 7.00663 18.028 7.06429C17.9528 7.12196 17.867 7.16424 17.7754 7.18873C17.7145 7.20473 17.6518 7.21291 17.5888 7.21307C17.4298 7.21307 17.2753 7.16056 17.1493 7.06371C17.0232 6.96685 16.9327 6.83108 16.8918 6.67749C16.6072 5.58587 16.0367 4.58989 15.239 3.79221C14.4414 2.99452 13.4454 2.424 12.3538 2.13945C12.2621 2.11506 12.1762 2.07285 12.1009 2.01522C12.0256 1.9576 11.9624 1.8857 11.9149 1.80363C11.8675 1.72156 11.8366 1.63093 11.8242 1.53694C11.8118 1.44294 11.818 1.34741 11.8425 1.25583ZM11.6324 5.02475C12.8758 5.35656 13.6747 6.15543 14.0065 7.39881C14.0474 7.55241 14.1379 7.68818 14.264 7.78503C14.39 7.88188 14.5445 7.93439 14.7035 7.9344C14.7665 7.93424 14.8292 7.92606 14.8901 7.91005C14.9817 7.88557 15.0675 7.84328 15.1427 7.78562C15.2179 7.72795 15.281 7.65604 15.3284 7.57398C15.3758 7.49192 15.4065 7.40133 15.4189 7.30738C15.4313 7.21343 15.425 7.11796 15.4005 7.02643C14.9388 5.29885 13.7324 4.09244 12.0048 3.63079C11.9133 3.60634 11.8178 3.60015 11.7239 3.61259C11.63 3.62503 11.5395 3.65584 11.4574 3.70327C11.3754 3.7507 11.3036 3.81382 11.246 3.88903C11.1883 3.96423 11.1461 4.05005 11.1216 4.14158C11.0972 4.23311 11.091 4.32855 11.1034 4.42247C11.1159 4.51639 11.1467 4.60694 11.1941 4.68895C11.2416 4.77096 11.3047 4.84283 11.3799 4.90044C11.4551 4.95806 11.5409 5.0003 11.6324 5.02475ZM19.0206 13.622C18.8598 14.8438 18.2598 15.9653 17.3326 16.777C16.4054 17.5887 15.2145 18.0352 13.9822 18.033C6.823 18.033 0.998299 12.2082 0.998299 5.04909C0.99609 3.81679 1.44253 2.62582 2.25425 1.69862C3.06596 0.771427 4.18743 0.171409 5.4092 0.0106374C5.71816 -0.0270871 6.03103 0.03612 6.30111 0.190823C6.57119 0.345526 6.784 0.583428 6.90776 0.869014L8.81206 5.12033V5.13115C8.90681 5.34976 8.94594 5.58843 8.92596 5.82585C8.90598 6.06327 8.8275 6.29205 8.69755 6.49175C8.68132 6.51609 8.66418 6.53863 8.64615 6.56117L6.7689 8.78646C7.44424 10.1588 8.87968 11.5816 10.27 12.2587L12.4647 10.3914C12.4862 10.3733 12.5088 10.3564 12.5323 10.3409C12.7318 10.2078 12.9614 10.1266 13.2002 10.1046C13.439 10.0825 13.6796 10.1204 13.9001 10.2147L13.9118 10.2201L18.1595 12.1235C18.4456 12.2468 18.6841 12.4594 18.8393 12.7296C18.9945 12.9997 19.0581 13.3128 19.0206 13.622ZM17.5888 13.4417H17.5789L13.3411 11.5437L11.1455 13.4111C11.1242 13.4291 11.102 13.446 11.0788 13.4616C10.8712 13.6001 10.6312 13.6823 10.3823 13.7003C10.1334 13.7184 9.88409 13.6715 9.65871 13.5643C7.96991 12.7483 6.28651 11.0776 5.46961 9.4068C5.36144 9.18306 5.3129 8.93517 5.3287 8.68716C5.3445 8.43914 5.42409 8.19941 5.55978 7.9912C5.57507 7.96675 5.59226 7.94354 5.61117 7.92177L7.49023 5.69378L5.59675 1.45599C5.59639 1.4524 5.59639 1.44877 5.59675 1.44517C4.72237 1.55923 3.91956 1.98812 3.33865 2.65151C2.75774 3.31491 2.43859 4.16731 2.44095 5.04909C2.44429 8.10899 3.66131 11.0426 5.82498 13.2063C7.98865 15.3699 10.9223 16.587 13.9822 16.5903C14.8634 16.5933 15.7156 16.2753 16.3794 15.6956C17.0431 15.116 17.4731 14.3153 17.5888 13.4417Z" fill="#272727"/>
</svg>
