<svg width="24" height="26" viewBox="0 0 24 26" fill="none" xmlns="http://www.w3.org/2000/svg">
<path d="M15.2599 17.2197L14.7069 17.8253C14.7069 17.8253 13.3907 19.2622 9.79928 15.3374C6.20789 11.4125 7.52412 9.97558 7.52412 9.97558L7.87293 9.59331C8.73098 8.65468 8.81241 7.14832 8.06253 6.0482L6.53117 3.79876C5.60264 2.43623 3.80998 2.25708 2.74654 3.41902L0.839639 5.50193C0.313388 6.07848 -0.0390666 6.82409 0.00347107 7.65296C0.112854 9.77246 0.985483 14.3306 5.85179 19.6508C11.0134 25.2902 15.8566 25.5148 17.8365 25.3116C18.4636 25.2486 19.0081 24.8966 19.4468 24.4172L21.1726 22.5298C22.3394 21.2556 22.0112 19.073 20.5188 18.1823L18.1974 16.7945C17.2178 16.2104 16.0256 16.382 15.2599 17.2184V17.2197ZM12.4694 1.23771C12.5085 0.990053 12.6406 0.768606 12.8368 0.621962C13.033 0.475317 13.2772 0.415455 13.5159 0.455511C13.5462 0.461819 13.6459 0.480743 13.6982 0.493359C13.8015 0.516068 13.9461 0.553916 14.126 0.606903C14.4869 0.716663 14.9913 0.897072 15.5966 1.18472C16.8071 1.76127 18.4174 2.76929 20.0897 4.504C21.7621 6.23997 22.7332 7.91285 23.2886 9.16941C23.5657 9.79769 23.7383 10.32 23.844 10.696C23.8973 10.8849 23.9431 11.0759 23.9813 11.2687L23.9874 11.3078C24.0274 11.5577 23.9712 11.8138 23.8309 12.0211C23.6907 12.2283 23.4775 12.37 23.2375 12.4155C22.9996 12.4556 22.756 12.3962 22.5601 12.2504C22.3642 12.1045 22.232 11.884 22.1923 11.6371C22.1674 11.4977 22.1346 11.3599 22.0939 11.2246C21.9697 10.7913 21.8153 10.368 21.632 9.95792C21.158 8.88555 20.3049 7.40443 18.8002 5.84256C17.2968 4.2807 15.8688 3.39631 14.8357 2.90428C14.4411 2.71406 14.0337 2.55383 13.6167 2.42488C13.4889 2.38742 13.36 2.35377 13.2302 2.32395C12.9913 2.28298 12.7774 2.14611 12.6349 1.94287C12.4923 1.73964 12.4324 1.48636 12.4682 1.23771H12.4694Z" fill="white"/>
<path fill-rule="evenodd" clip-rule="evenodd" d="M12.7441 5.59057C12.7769 5.47101 12.832 5.35934 12.9064 5.26191C12.9808 5.16449 13.0729 5.08323 13.1775 5.02277C13.2821 4.96232 13.3972 4.92385 13.5162 4.90958C13.6351 4.89531 13.7556 4.9055 13.8708 4.93958L13.8744 4.94084L13.8781 4.9421L13.8878 4.94463L13.9121 4.9522L13.9801 4.97743C14.3032 5.1066 14.615 5.26402 14.9123 5.44801C15.5066 5.81387 16.3185 6.41944 17.2726 7.41106C18.2266 8.40142 18.8112 9.24417 19.1637 9.8611C19.3399 10.1702 19.4566 10.4213 19.5319 10.6054C19.5723 10.7018 19.6088 10.7999 19.6413 10.8994L19.6474 10.9246L19.651 10.9347V10.9385L19.6522 10.9398C19.6522 10.9398 19.6522 10.9423 18.7772 11.2022L19.6522 10.9423C19.714 11.181 19.6832 11.4353 19.5667 11.6509C19.4501 11.8664 19.2569 12.026 19.0284 12.0955C18.7999 12.1651 18.5543 12.1391 18.344 12.0231C18.1338 11.907 17.9756 11.7102 17.9033 11.4747L17.8997 11.4621C17.8142 11.2424 17.7126 11.0298 17.5958 10.8262C17.3236 10.3506 16.8338 9.63149 15.9831 8.74836C15.1323 7.86524 14.4408 7.35808 13.9826 7.07674C13.7865 6.95545 13.5817 6.85001 13.37 6.76134L13.3579 6.75629C13.1283 6.68464 12.9351 6.52199 12.8203 6.30356C12.7054 6.08513 12.678 5.82978 12.7441 5.59057Z" fill="white"/>
</svg>
