<svg width="39" height="39" viewBox="0 0 39 39" fill="none" xmlns="http://www.w3.org/2000/svg">
<path d="M25.67 17.4449V17.4654M5.47118 12.0555C4.56966 11.3626 3.87727 10.4339 3.47053 9.37215C3.0638 8.31036 2.95856 7.15679 3.16644 6.03893C3.37432 4.92108 3.88724 3.88246 4.64849 3.03788C5.40975 2.1933 6.3897 1.57565 7.48004 1.25318C8.57038 0.930716 9.72864 0.915999 10.8268 1.21066C11.925 1.50531 12.9203 2.09787 13.7028 2.92283C14.4853 3.7478 15.0244 4.77304 15.2606 5.88526C15.4968 6.99748 15.421 8.15335 15.0413 9.22513" stroke="#2C64EE" stroke-width="1.5" stroke-linecap="round" stroke-linejoin="round"/>
<path d="M27.7248 3.0567V10.8736C30.2687 12.3455 32.2054 14.675 33.1882 17.4448H35.9446C36.4897 17.4448 37.0125 17.6614 37.398 18.0468C37.7834 18.4323 38 18.9551 38 19.5003V23.6111C38 24.1563 37.7834 24.6791 37.398 25.0646C37.0125 25.45 36.4897 25.6666 35.9446 25.6666H33.1861C32.4955 27.6193 31.3219 29.3664 29.7782 30.7497V34.9161C29.7782 35.7338 29.4534 36.518 28.8752 37.0962C28.297 37.6744 27.5128 37.9993 26.695 37.9993C25.8773 37.9993 25.0931 37.6744 24.5149 37.0962C23.9367 36.518 23.6119 35.7338 23.6119 34.9161V33.7178C22.9327 33.8316 22.2451 33.8886 21.5564 33.8884H13.3347C12.646 33.8886 11.9584 33.8316 11.2792 33.7178V34.9161C11.2792 35.7338 10.9544 36.518 10.3762 37.0962C9.79797 37.6744 9.01375 37.9993 8.19605 37.9993C7.37834 37.9993 6.59412 37.6744 6.01592 37.0962C5.43771 36.518 5.11288 35.7338 5.11288 34.9161V30.7497C3.25057 29.0847 1.93778 26.8935 1.3483 24.4659C0.758807 22.0384 0.92041 19.4891 1.81171 17.1555C2.70302 14.8218 4.28199 12.8138 6.33964 11.3973C8.39729 9.98086 10.8366 9.22263 13.3347 9.22304H18.4733L27.7228 3.0567H27.7248Z" stroke="#2C64EE" stroke-width="1.5" stroke-linecap="round" stroke-linejoin="round"/>
</svg>
