<svg width="18" height="17" viewBox="0 0 18 17" fill="none" xmlns="http://www.w3.org/2000/svg">
<path d="M2.48123 16C2.14154 16 1.97169 15.8523 1.97169 15.5569C1.97169 15.4683 2.00123 15.3871 2.06031 15.3132L13.0043 0.913229C13.1077 0.780306 13.2111 0.676921 13.3145 0.603075C13.4178 0.529229 13.5729 0.492306 13.7797 0.492306H15.3526C15.6923 0.492306 15.8622 0.639999 15.8622 0.935384C15.8622 1.024 15.8326 1.10523 15.7735 1.17908L4.82954 15.5791C4.72615 15.712 4.62277 15.8154 4.51938 15.8892C4.416 15.9631 4.26092 16 4.05415 16H2.48123ZM13.6246 16.1108C12.6203 16.1108 11.8154 15.8449 11.2098 15.3132C10.6191 14.7815 10.2868 14.0726 10.2129 13.1865C10.1982 12.8025 10.1908 12.4628 10.1908 12.1674C10.1908 11.872 10.1982 11.5175 10.2129 11.104C10.272 10.2031 10.5895 9.48677 11.1655 8.95508C11.7563 8.40861 12.576 8.13538 13.6246 8.13538C14.688 8.13538 15.5077 8.40861 16.0837 8.95508C16.6597 9.48677 16.9772 10.2031 17.0363 11.104C17.0658 11.5175 17.0806 11.872 17.0806 12.1674C17.0806 12.4628 17.0658 12.8025 17.0363 13.1865C16.9772 14.0726 16.6449 14.7815 16.0394 15.3132C15.4338 15.8449 14.6289 16.1108 13.6246 16.1108ZM13.6246 14.1612C13.8757 14.1612 14.0677 14.1095 14.2006 14.0062C14.3483 13.9028 14.4591 13.7698 14.5329 13.6074C14.6068 13.4302 14.6437 13.2455 14.6437 13.0535C14.6732 12.7138 14.688 12.4037 14.688 12.1231C14.688 11.8425 14.6732 11.5397 14.6437 11.2148C14.6289 10.9342 14.5477 10.6831 14.4 10.4615C14.2523 10.2252 13.9938 10.1071 13.6246 10.1071C13.2554 10.1071 12.9969 10.2252 12.8492 10.4615C12.7015 10.6831 12.6203 10.9342 12.6055 11.2148C12.5908 11.5397 12.5834 11.8425 12.5834 12.1231C12.5834 12.4037 12.5908 12.7138 12.6055 13.0535C12.6203 13.2455 12.6572 13.4302 12.7163 13.6074C12.7902 13.7698 12.9009 13.9028 13.0486 14.0062C13.1963 14.1095 13.3883 14.1612 13.6246 14.1612ZM4.25354 8.31262C3.23446 8.31262 2.42215 8.05415 1.81662 7.53723C1.22585 7.00554 0.900923 6.29661 0.841846 5.41046C0.812308 5.02646 0.797539 4.69415 0.797539 4.41354C0.812308 4.11815 0.827077 3.76369 0.841846 3.35015C0.886154 2.44923 1.19631 1.73292 1.77231 1.20123C2.36308 0.654768 3.19015 0.381537 4.25354 0.381537C5.31692 0.381537 6.13662 0.654768 6.71262 1.20123C7.28862 1.73292 7.59877 2.44923 7.64308 3.35015C7.67262 3.76369 7.68738 4.11815 7.68738 4.41354C7.68738 4.69415 7.67262 5.02646 7.64308 5.41046C7.59877 6.29661 7.27385 7.00554 6.66831 7.53723C6.06277 8.05415 5.25785 8.31262 4.25354 8.31262ZM4.25354 6.40738C4.48985 6.40738 4.68185 6.35569 4.82954 6.25231C4.97723 6.13415 5.088 5.99385 5.16185 5.83138C5.23569 5.65415 5.27262 5.47692 5.27262 5.29969C5.30215 4.96 5.31692 4.64984 5.31692 4.36923C5.31692 4.08861 5.30215 3.78585 5.27262 3.46092C5.25785 3.18031 5.16923 2.92923 5.00677 2.70769C4.85908 2.47138 4.608 2.35323 4.25354 2.35323C3.88431 2.35323 3.61846 2.47138 3.456 2.70769C3.30831 2.92923 3.22708 3.18031 3.21231 3.46092C3.19754 3.78585 3.19015 4.08861 3.19015 4.36923C3.19015 4.64984 3.19754 4.96 3.21231 5.29969C3.22708 5.47692 3.264 5.65415 3.32308 5.83138C3.39692 5.99385 3.50769 6.13415 3.65538 6.25231C3.80308 6.35569 4.00246 6.40738 4.25354 6.40738Z" fill="white"/>
</svg>
