<svg width="26" height="26" viewBox="0 0 26 26" fill="none" xmlns="http://www.w3.org/2000/svg">
<path d="M13 26C10.7939 26 8.76515 25.4977 6.91364 24.4932C5.06212 23.4886 3.54546 22.1492 2.36364 20.475V22.4545C2.36364 22.7894 2.25018 23.0703 2.02328 23.2972C1.79637 23.5241 1.51588 23.6372 1.18182 23.6364C0.846974 23.6364 0.566095 23.5229 0.339186 23.296C0.112277 23.0691 -0.000783789 22.7886 4.08934e-06 22.4545V17.7273C4.08934e-06 17.3924 0.113459 17.1115 0.340368 16.8846C0.567277 16.6577 0.847761 16.5447 1.18182 16.5455H5.90909C6.24394 16.5455 6.52482 16.6589 6.75173 16.8858C6.97864 17.1127 7.0917 17.3932 7.09091 17.7273C7.09091 18.0621 6.97746 18.343 6.75055 18.5699C6.52364 18.7968 6.24315 18.9099 5.90909 18.9091H4.16591C5.11137 20.3273 6.3574 21.4697 7.904 22.3364C9.45061 23.203 11.1493 23.6364 13 23.6364C15.7773 23.6364 18.1657 22.7106 20.1654 20.8591C22.165 19.0076 23.3023 16.7326 23.5773 14.0341C23.6167 13.7189 23.7545 13.4676 23.9909 13.2801C24.2273 13.0926 24.503 12.9992 24.8182 13C25.153 13 25.4386 13.1036 25.675 13.3108C25.9114 13.518 26.0098 13.769 25.9705 14.0636C25.8326 15.7379 25.3992 17.2987 24.6705 18.746C23.9417 20.1933 22.9962 21.4539 21.8341 22.5278C20.672 23.6017 19.3373 24.4487 17.8301 25.0687C16.3229 25.6888 14.7128 25.9992 13 26ZM13 2.36364C10.2227 2.36364 7.83467 3.28939 5.83582 5.14091C3.83697 6.99242 2.69928 9.26742 2.42273 11.9659C2.38334 12.2811 2.24546 12.5324 2.00909 12.7199C1.77273 12.9074 1.49697 13.0008 1.18182 13C0.846974 13 0.561368 12.8964 0.325004 12.6892C0.0886404 12.482 -0.00984442 12.231 0.0295495 11.9364C0.167428 10.2621 0.600761 8.70133 1.32955 7.254C2.05834 5.80667 3.00379 4.54606 4.16591 3.47218C5.32803 2.3983 6.6627 1.55133 8.16991 0.931273C9.67712 0.311212 11.2872 0.000787879 13 0C15.2061 0 17.2348 0.502273 19.0864 1.50682C20.9379 2.51136 22.4545 3.85076 23.6364 5.525V3.54545C23.6364 3.21061 23.7498 2.93012 23.9767 2.704C24.2036 2.47788 24.4841 2.36442 24.8182 2.36364C25.153 2.36364 25.4339 2.47709 25.6608 2.704C25.8877 2.93091 26.0008 3.21139 26 3.54545V8.27273C26 8.60758 25.8865 8.88845 25.6596 9.11536C25.4327 9.34227 25.1522 9.45533 24.8182 9.45455H20.0909C19.7561 9.45455 19.4752 9.34109 19.2483 9.11418C19.0214 8.88727 18.9083 8.60679 18.9091 8.27273C18.9091 7.93788 19.0225 7.657 19.2495 7.43009C19.4764 7.20318 19.7568 7.09012 20.0909 7.09091H21.8341C20.8886 5.67273 19.6426 4.5303 18.096 3.66364C16.5494 2.79697 14.8507 2.36364 13 2.36364Z" fill="white"/>
</svg>
