<svg width="28" height="36" viewBox="0 0 28 36" fill="none" xmlns="http://www.w3.org/2000/svg">
<path d="M4.30762 24.7692H8.61531" stroke="#2C64EE" stroke-width="1.29231" stroke-linecap="round"/>
<rect x="0.538462" y="0.538462" width="26.9231" height="34.4615" rx="1.61538" stroke="#2C64EE" stroke-width="1.07692"/>
<path d="M4.30762 8.0769H13.9999" stroke="#2C64EE" stroke-width="1.29231" stroke-linecap="round"/>
<path d="M4.30762 14L21.5384 14" stroke="#2C64EE" stroke-width="1.29231" stroke-linecap="round"/>
<path d="M4.30762 19.3846H13.9999" stroke="#2C64EE" stroke-width="1.29231" stroke-linecap="round"/>
<path d="M16.4654 26.7386L17.3939 28.3567L18.3404 26.7386H19.5348L18.0564 29.1319L19.5934 31.6154H18.399L17.4074 29.9297L16.4158 31.6154H15.2169L16.7493 29.1319L15.2755 26.7386H16.4654ZM24.6144 30.75V31.6154H20.2154V30.8717L22.3518 28.5415C22.5862 28.277 22.771 28.0487 22.9062 27.8564C23.0414 27.6641 23.136 27.4913 23.1901 27.338C23.2472 27.1818 23.2758 27.0301 23.2758 26.8828C23.2758 26.6755 23.2367 26.4937 23.1586 26.3374C23.0835 26.1782 22.9723 26.0535 22.825 25.9633C22.6778 25.8702 22.499 25.8236 22.2887 25.8236C22.0453 25.8236 21.841 25.8762 21.6757 25.9814C21.5104 26.0865 21.3857 26.2323 21.3016 26.4186C21.2175 26.6019 21.1754 26.8122 21.1754 27.0496H20.0892C20.0892 26.668 20.1763 26.3194 20.3506 26.0039C20.5249 25.6854 20.7773 25.433 21.1078 25.2467C21.4383 25.0574 21.8365 24.9627 22.3022 24.9627C22.7409 24.9627 23.1135 25.0364 23.42 25.1836C23.7265 25.3308 23.9594 25.5397 24.1186 25.8101C24.2809 26.0805 24.362 26.4005 24.362 26.7701C24.362 26.9745 24.329 27.1773 24.2628 27.3786C24.1967 27.5799 24.1021 27.7813 23.9789 27.9826C23.8587 28.1809 23.716 28.3807 23.5507 28.582C23.3854 28.7804 23.2037 28.9817 23.0053 29.186L21.5856 30.75H24.6144Z" fill="#2C64EE"/>
</svg>
